<?xml version="1.0" standalone="no"?>
<!DOCTYPE svg PUBLIC "-//W3C//DTD SVG 20010904//EN"
 "http://www.w3.org/TR/2001/REC-SVG-20010904/DTD/svg10.dtd">
<svg version="1.0" xmlns="http://www.w3.org/2000/svg"
 width="640.000000pt" height="640.000000pt" viewBox="0 0 640.000000 640.000000"
 preserveAspectRatio="xMidYMid meet">
<metadata>
Created by potrace 1.11, written by Peter Selinger 2001-2013
</metadata>
<g transform="translate(0.000000,640.000000) scale(0.100000,-0.100000)"
fill="#000000" stroke="none">
<path d="M1 4873 c1 -1340 3 -1511 15 -1393 15 159 27 232 61 400 102 499 373
1038 713 1420 42 47 89 100 106 119 39 44 263 244 344 307 491 379 1054 599
1685 659 109 11 -116 13 -1397 14 l-1528 1 1 -1527z"/>
<path d="M3475 6385 c318 -30 603 -96 874 -201 827 -322 1475 -957 1812 -1776
118 -289 190 -585 223 -918 12 -118 14 54 15 1388 l1 1522 -1527 -1 c-1282 -1
-1507 -3 -1398 -14z"/>
<path d="M2905 6339 c-449 -52 -850 -175 -1210 -372 -438 -239 -815 -580
-1097 -992 -80 -116 -205 -332 -245 -425 -14 -30 -31 -68 -38 -85 -80 -175
-161 -432 -204 -650 -147 -736 -24 -1514 344 -2160 508 -895 1393 -1477 2415
-1590 173 -19 487 -19 660 0 814 90 1542 476 2082 1105 239 279 451 657 574
1025 113 340 164 652 164 1008 -1 857 -344 1665 -961 2262 -485 469 -1093 763
-1779 860 -135 20 -582 28 -705 14z m134 -588 c12 -8 12 -12 2 -25 -15 -18
-63 -21 -92 -5 -16 8 -18 13 -8 25 13 16 76 19 98 5z m373 -2 c21 -11 21 -12
3 -25 -23 -17 -69 -18 -97 -3 -21 11 -21 12 -3 25 23 17 69 18 97 3z m-1102
-275 c0 -28 -19 -52 -50 -62 -27 -10 -30 -9 -30 9 0 24 42 69 65 69 8 0 15 -7
15 -16z m1794 -10 c33 -34 36 -68 4 -59 -27 8 -68 50 -68 71 0 23 35 16 64
-12z m-2054 -244 c0 -27 -43 -70 -70 -70 -11 0 -20 3 -20 8 1 18 29 56 51 68
33 18 39 17 39 -6z m2318 -13 c32 -37 35 -57 7 -57 -26 0 -65 42 -65 70 0 24
31 16 58 -13z m-1728 -3 c130 -30 273 -92 424 -184 46 -27 87 -50 91 -50 3 0
27 14 51 31 25 17 97 57 160 90 294 150 524 170 638 55 109 -108 102 -302 -19
-552 -30 -62 -79 -148 -109 -192 l-54 -80 65 -104 c75 -120 134 -241 166 -342
31 -101 32 -263 0 -321 -54 -100 -132 -141 -268 -139 -148 2 -362 80 -545 198
-39 25 -77 46 -86 46 -8 0 -40 -16 -70 -35 -143 -92 -343 -177 -473 -201 -185
-35 -316 20 -372 156 -20 49 -17 200 5 275 25 82 134 306 190 387 25 37 46 70
46 74 0 3 -21 37 -46 75 -71 107 -140 245 -174 349 -26 78 -32 112 -33 190 -1
81 2 102 22 143 28 56 88 111 145 131 54 19 165 19 246 0z m-911 -682 c14 -33
-1 -86 -22 -79 -21 7 -32 53 -19 82 15 33 27 32 41 -3z m2945 -10 c7 -24 5
-37 -9 -58 l-18 -27 -13 24 c-16 29 -17 54 -3 80 14 27 32 19 43 -19z m-2934
-378 c0 -19 -22 -64 -31 -64 -25 0 -37 67 -18 103 l12 21 18 -23 c11 -13 19
-29 19 -37z m2940 -4 c0 -10 -9 -28 -19 -41 l-19 -24 -11 28 c-14 37 -14 53 2
77 12 21 12 21 30 -1 9 -12 17 -29 17 -39z m-288 -676 c-9 -46 -82 -88 -82
-46 0 22 9 34 40 55 30 21 46 17 42 -9z m-2363 -10 c43 -55 11 -75 -40 -25
-16 16 -29 34 -29 40 0 22 49 11 69 -15z m253 -244 c50 -39 37 -87 -13 -52
-30 20 -39 32 -39 55 0 23 21 22 52 -3z m1848 2 c0 -19 -34 -62 -50 -62 -4 0
-15 -3 -24 -6 -27 -10 -19 25 13 57 33 33 61 38 61 11z m-710 -318 c0 -18 -63
-29 -89 -15 -28 16 -26 27 7 39 32 11 82 -3 82 -24z m-381 12 c10 -12 8 -17
-8 -25 -25 -14 -42 -14 -76 -1 -23 9 -25 13 -15 25 16 19 84 20 99 1z m-1713
-496 c153 -76 230 -232 228 -460 -2 -161 -48 -293 -131 -374 -65 -64 -103 -78
-241 -88 -68 -5 -151 -8 -184 -6 l-60 3 2 423 c1 425 3 457 38 496 27 30 51
35 173 35 109 1 119 -1 175 -29z m1904 10 c116 -59 165 -229 101 -355 l-29
-57 33 -29 c41 -36 76 -116 82 -189 11 -116 -51 -236 -144 -280 -43 -21 -67
-24 -221 -28 l-173 -5 3 434 c3 429 3 434 25 470 13 20 33 41 45 47 13 6 72
11 131 11 89 1 115 -2 147 -19z m1082 -102 l3 -123 58 1 57 1 0 -41 c0 -64
-27 -108 -77 -126 l-43 -14 0 -188 0 -188 35 0 c22 0 38 6 41 15 10 24 22 17
29 -15 21 -95 -88 -184 -178 -146 -68 28 -71 43 -77 301 l-5 230 -30 0 -30 1
0 84 c0 68 3 85 15 86 49 3 48 1 49 80 2 109 39 161 118 163 l32 1 3 -122z
m-2262 -128 c73 -37 140 -145 140 -225 0 -53 -30 -121 -72 -161 -49 -48 -91
-64 -160 -64 -94 0 -158 52 -158 128 0 20 -4 31 -10 27 -31 -19 7 -164 55
-212 28 -28 40 -33 82 -33 39 0 58 6 90 30 l42 31 55 -32 c31 -17 58 -34 61
-39 9 -14 -55 -97 -94 -123 -107 -71 -246 -58 -344 31 -47 43 -95 156 -102
243 -19 206 79 378 240 420 44 12 131 1 175 -21z m2821 15 c95 -34 157 -113
166 -212 7 -82 -10 -137 -60 -187 -46 -46 -99 -66 -170 -66 -86 0 -134 37
-154 117 l-11 48 -1 -60 c-1 -71 32 -151 72 -178 51 -33 110 -22 188 34 13 10
28 5 78 -25 69 -42 69 -45 3 -118 -70 -77 -181 -107 -284 -76 -95 28 -186 154
-209 290 -26 158 51 352 165 410 77 40 148 47 217 23z m523 -14 c68 -42 87
-152 35 -207 -25 -26 -39 -31 -39 -12 0 27 -43 58 -81 58 -77 0 -55 -44 59
-112 33 -20 74 -55 91 -78 59 -82 61 -197 4 -282 -31 -46 -111 -88 -168 -88
-58 0 -140 44 -176 93 l-29 39 30 42 c17 22 39 52 49 65 l19 25 26 -31 c37
-44 89 -60 121 -39 14 9 25 20 25 24 0 19 -36 54 -98 95 -112 75 -144 126
-144 223 1 161 151 262 276 185z m-2589 9 c7 -11 -23 -108 -125 -400 -40 -113
-79 -225 -87 -250 -9 -25 -20 -51 -26 -57 -10 -14 -75 -17 -93 -5 -6 4 -36 81
-67 172 -30 91 -85 249 -120 353 l-66 187 82 0 83 0 54 -157 c29 -87 60 -174
68 -193 l14 -35 44 125 c61 173 91 229 134 252 37 19 95 24 105 8z m847 -239
c3 -225 4 -241 24 -268 41 -54 134 -31 134 34 0 20 4 23 20 18 20 -6 20 -2 20
224 l0 231 81 0 80 0 -4 -367 c-3 -398 -5 -408 -60 -489 -102 -153 -353 -158
-431 -9 -16 31 -21 57 -20 113 1 68 11 103 21 74 11 -29 60 -76 98 -93 94 -43
200 -7 221 75 l7 28 -44 -25 c-58 -33 -98 -41 -148 -27 -53 14 -104 59 -133
118 -22 45 -23 59 -26 325 l-4 277 80 0 81 0 3 -239z"/>
<path d="M2424 5150 c-82 -19 -143 -106 -144 -203 0 -57 33 -183 70 -270 44
-101 159 -297 175 -297 5 1 37 35 70 76 76 96 260 275 392 383 57 46 100 87
98 92 -3 4 -44 31 -91 59 -212 128 -438 192 -570 160z"/>
<path d="M3680 5145 c-36 -8 -91 -23 -123 -34 -108 -38 -337 -164 -337 -185 0
-6 26 -30 58 -53 129 -94 368 -327 467 -455 16 -21 32 -38 36 -38 12 0 117
172 154 252 174 377 73 580 -255 513z"/>
<path d="M3070 4829 c-81 -63 -276 -237 -310 -276 -175 -202 -190 -220 -190
-238 0 -50 363 -415 532 -535 l47 -33 43 28 c56 37 141 108 257 214 112 103
295 317 284 334 -20 35 -127 162 -195 233 -132 137 -355 324 -388 324 -8 0
-44 -23 -80 -51z"/>
<path d="M2467 4179 c-119 -183 -180 -345 -181 -479 -1 -73 3 -91 24 -128 13
-24 38 -52 56 -63 94 -58 269 -39 474 53 73 33 250 137 250 146 -1 4 -37 34
-82 67 -103 76 -309 274 -395 379 -37 45 -72 87 -79 95 -10 11 -22 0 -67 -70z"/>
<path d="M3707 4173 c-87 -105 -281 -292 -401 -387 l-98 -78 62 -40 c176 -111
350 -177 485 -185 112 -7 164 7 208 52 63 65 73 158 32 301 -38 132 -184 414
-214 414 -5 0 -38 -35 -74 -77z"/>
<path d="M1034 2400 c-17 -5 -39 -19 -50 -31 -18 -20 -19 -43 -22 -446 l-3
-426 170 5 c165 5 170 6 223 35 177 99 242 438 130 677 -36 76 -85 126 -158
162 -48 23 -71 28 -158 30 -55 2 -115 -1 -132 -6z m223 -143 c34 -19 102 -86
117 -116 26 -52 39 -133 34 -220 -11 -194 -98 -281 -278 -281 l-50 0 0 305 0
305 23 5 c73 16 128 16 154 2z"/>
<path d="M1153 2238 l-53 -10 0 -280 0 -281 75 6 c105 8 142 29 180 101 25 49
30 72 33 151 7 145 -32 245 -112 294 -44 27 -64 30 -123 19z"/>
<path d="M2972 2400 c-71 -30 -72 -40 -72 -497 l0 -405 173 3 c196 5 216 11
274 87 57 74 67 215 23 303 -20 38 -83 99 -102 99 -7 0 0 12 14 28 48 51 60
88 56 173 -3 67 -7 83 -33 121 -49 68 -102 92 -215 95 -52 2 -105 -2 -118 -7z
m198 -155 c49 -26 69 -85 45 -141 -11 -26 -27 -39 -78 -63 -73 -32 -90 -54
-85 -109 2 -31 6 -36 23 -33 94 16 153 -5 186 -70 24 -48 24 -85 -1 -126 -26
-44 -77 -63 -166 -63 l-74 0 0 310 0 310 60 0 c35 0 74 -7 90 -15z"/>
<path d="M3047 2233 c-7 -6 -10 -213 -4 -213 17 0 146 74 151 86 10 27 7 79
-7 98 -18 25 -123 47 -140 29z"/>
<path d="M3065 1855 c-22 -22 -25 -32 -25 -106 l0 -81 84 3 c65 3 89 8 105 23
47 42 31 140 -28 170 -47 25 -107 21 -136 -9z"/>
<path d="M4221 2384 c-34 -24 -51 -75 -51 -153 l0 -70 -32 -3 c-33 -3 -33 -3
-33 -58 0 -55 0 -55 33 -58 l32 -3 0 -215 c0 -276 12 -312 109 -322 42 -4 52
-1 79 24 17 16 34 42 38 57 6 27 6 28 -33 21 -71 -11 -73 -3 -73 232 l0 204
38 0 c48 0 72 24 79 79 l6 41 -62 0 -61 0 0 120 c0 118 0 120 -23 120 -12 0
-33 -7 -46 -16z"/>
<path d="M1860 2171 c-121 -37 -196 -152 -207 -317 -5 -66 -2 -94 16 -150 50
-157 131 -220 273 -212 86 4 138 27 181 81 34 41 30 51 -27 82 l-34 19 -36
-28 c-25 -19 -53 -29 -90 -33 -51 -5 -55 -4 -94 31 -135 123 -71 416 91 416
127 0 179 -156 62 -186 -29 -7 -131 -1 -156 10 -42 18 -21 -74 24 -108 23 -17
42 -21 97 -20 132 2 200 69 200 197 0 103 -45 175 -134 211 -40 17 -123 20
-166 7z"/>
<path d="M1873 2021 c-18 -11 -40 -32 -49 -46 -17 -26 -16 -27 10 -53 24 -25
33 -27 102 -27 68 1 79 4 95 24 57 70 -74 155 -158 102z"/>
<path d="M4691 2163 c-57 -20 -116 -81 -150 -152 -24 -51 -26 -67 -26 -181 0
-114 2 -130 26 -180 55 -116 136 -165 263 -158 63 3 81 8 117 33 23 17 51 42
62 57 23 31 17 44 -36 73 l-34 18 -38 -29 c-32 -24 -48 -29 -96 -29 -47 0 -62
4 -85 25 -85 79 -97 271 -21 357 64 73 144 85 202 31 20 -19 38 -47 41 -65 5
-27 1 -37 -25 -63 -30 -31 -33 -31 -104 -27 -39 2 -82 7 -94 12 -20 6 -23 4
-23 -21 0 -47 34 -91 78 -105 56 -16 153 2 199 37 109 83 92 274 -31 349 -60
36 -155 44 -225 18z"/>
<path d="M4750 2033 c-26 -10 -80 -66 -80 -85 0 -32 48 -53 122 -52 108 0 139
45 74 110 -34 34 -73 43 -116 27z"/>
<path d="M5245 2168 c-42 -15 -74 -46 -96 -93 -50 -108 3 -213 154 -304 46
-28 67 -57 67 -93 0 -37 -25 -58 -69 -58 -35 0 -81 24 -104 55 -8 11 -62 -47
-73 -78 -14 -44 89 -107 176 -107 110 0 180 75 180 195 0 104 -32 147 -175
238 -41 26 -51 38 -53 64 -3 25 2 35 22 48 32 21 63 14 106 -22 31 -26 33 -26
46 -8 8 10 14 33 14 51 0 56 -17 84 -62 104 -47 22 -87 24 -133 8z"/>
<path d="M2699 2153 c-38 -23 -52 -52 -109 -214 -28 -79 -53 -151 -57 -159 -3
-8 -5 -19 -4 -25 2 -7 -1 -7 -8 0 -6 6 -39 95 -75 198 -36 103 -68 192 -71
197 -10 15 -115 13 -115 -3 0 -12 103 -311 210 -614 11 -29 16 -33 50 -33 43
0 32 -24 135 280 74 217 119 346 130 373 6 14 2 17 -26 17 -19 0 -46 -8 -60
-17z"/>
<path d="M3510 1932 c0 -262 9 -324 53 -377 69 -85 192 -86 269 -3 22 24 29
27 34 15 11 -29 -24 -124 -56 -151 -29 -24 -86 -46 -121 -46 -34 0 -106 32
-136 60 -38 35 -48 26 -39 -34 14 -89 77 -142 180 -153 120 -12 222 50 267
163 23 57 24 70 27 407 l3 347 -60 0 -61 0 0 -240 c0 -220 -5 -263 -25 -230
-3 5 -23 -8 -44 -30 -48 -50 -84 -53 -126 -10 -37 39 -44 83 -44 318 l-1 192
-60 0 -60 0 0 -228z"/>
<path d="M1 1528 l-1 -1528 1523 1 c1331 1 1505 3 1387 15 -197 19 -325 41
-517 90 -291 74 -607 209 -871 373 -755 467 -1288 1233 -1456 2091 -24 124
-36 209 -50 350 -12 118 -14 -53 -15 -1392z"/>
<path d="M6386 2943 c-16 -238 -65 -486 -142 -725 -316 -978 -1085 -1746
-2066 -2063 -222 -72 -428 -114 -688 -139 -118 -12 53 -14 1388 -15 l1522 -1
0 1520 c0 836 -2 1520 -4 1520 -1 0 -6 -44 -10 -97z"/>
</g>
</svg>
